<?xml version="1.0" encoding="UTF-8" standalone="no"?>
<!-- Created with Serif DrawPlus 12,0,4,27 (May 24, 08:37:51) (http://www.serif.com) -->
<svg version="1.1" xmlns="http://www.w3.org/2000/svg" xmlns:xlink="http://www.w3.org/1999/xlink" width="816" height="1056">
	<g id="Layer_1">
		<path id="dp_path001" transform="matrix(1,0,0,1,24.54,969.845)" fill="white" stroke="black" stroke-width="13.3333" d="M 720.991,-198.773 C 693.967,-123.613 643.613,-67.3493 570.036,-30.0853 C 506.805,1.9 431.223,17.9453 343.395,17.9453 C 230.232,17.9453 146.204,-11.5067 91.4173,-70.516 C 55.104,-109.573 36.9467,-155.599 36.9467,-208.908 C 36.9467,-235.087 42.8587,-262.956 54.6813,-292.408 L 199.513,-319.009 C 182.623,-282.696 174.177,-249.867 174.177,-220.308 C 174.177,-179.667 186.001,-147.048 209.541,-122.557 C 233.187,-97.1173 265.067,-84.4493 305.287,-84.4493 C 364.084,-84.4493 409.055,-109.045 439.984,-158.132 C 466.903,-199.619 480.308,-251.555 480.308,-314.048 C 480.308,-363.768 468.591,-404.304 445.261,-435.761 C 419.188,-470.385 382.136,-487.697 334.211,-487.697 C 267.073,-487.697 217.141,-455.607 184.312,-391.531 L 67.3493,-418.027 L 155.283,-912.059 L 691.433,-912.059 L 653.536,-713.601 L 238.465,-713.601 L 211.019,-553.675 C 269.289,-589.249 335.055,-606.984 408.315,-606.984 C 499.416,-606.984 576.476,-580.381 639.708,-527.073 C 707.268,-471.441 741.048,-398.709 741.048,-308.876 C 741.048,-272.561 734.397,-235.827 720.991,-198.773 Z "/>
	</g>
</svg>